# xmcd CD database file
#
# Track frame offsets:
#	182
#	12470
#	27172
#	40402
#	55152
#	69510
#	84517
#	97510
#	110975
#	126807
#	141710
#	156815
#	172080
#	185162
#	201845
#	216752
#
# Disc length: 3062 seconds
#
# Revision: 0
# Processed by: cddbd v1.5PL3 Copyright (c) Steve Scherf et al.
# Submitted via: CDex 1.51
#
DISCID=ec0bf410
DTITLE=The Legends Collection - Duke Ellington
DYEAR=1996
DGENRE=Blues
TTITLE0=Ko-Ko
TTITLE1=Jack the Bear
TTITLE2=Conga Brava
TTITLE3=Concerto for Cootie
TTITLE4=Cotton Tail
TTITLE5=Never to Lament
TTITLE6=Bojangles (A Portrait of Bill Robinson)
TTITLE7=Harlem Air Shaft
TTITLE8=All too Soon
TTITLE9=In a Mellotone
TTITLE10=Warm Valley
TTITLE11=Flamingo
TTITLE12=Take the 'A' Train
TTITLE13=Jumpin' Punkins
TTITLE14=I got it bad and that ain't good
TTITLE15=Mood Indigo
EXTD=YEAR: 1996
EXTT0=
EXTT1=
EXTT2=
EXTT3=
EXTT4=
EXTT5=
EXTT6=
EXTT7=
EXTT8=
EXTT9=
EXTT10=
EXTT11=
EXTT12=
EXTT13=
EXTT14=
EXTT15=
PLAYORDER=
